# xmcd
#
# Track frame offsets: 
#        150
#        13788
#        38759
#        66582
#        87289
#        96576
#        119389
#        148003
#        171634
#        194364
#        211912
#        228025
#        254000
#        278097
#
# Disc length: 3751 seconds
#
# Revision: 0
# Processed by: cddbd v1.5.2PL0 Copyright (c) Steve Scherf et al.
# Submitted via: ExactAudioCopy v0.95b3
#
DISCID=d40ea50e
DTITLE=Bernard Anderson and the Old School Band - Raw at the Saloon
DYEAR=2005
DGENRE=R&B
TTITLE0=Night Train
TTITLE1=Caledonia
TTITLE2=Unchain My Heart
TTITLE3=Next Time I See You
TTITLE4=Birthday Shuffle
TTITLE5=Barefoot'n
TTITLE6=Soul Serenade
TTITLE7=Honky Tonk
TTITLE8=Got To Get You Off My Mind
TTITLE9=When a Man Loves a Woman
TTITLE10=Walking the Dog
TTITLE11=Watermelon Man
TTITLE12=Toot Toot
TTITLE13=Hold It
EXTD=
EXTT0=
EXTT1=
EXTT2=
EXTT3=
EXTT4=
EXTT5=
EXTT6=
EXTT7=
EXTT8=
EXTT9=
EXTT10=
EXTT11=
EXTT12=
EXTT13=
PLAYORDER=
